<mxfile host="app.diagrams.net" modified="2023-03-15T13:29:32.386Z" agent="5.0 (Windows)" etag="AwpmRUAHswhkhU4WoYDr" version="21.0.2" type="github">
  <diagram id="C5RBs43oDa-KdzZeNtuy" name="Page-1">
    <mxGraphModel dx="1434" dy="739" grid="1" gridSize="10" guides="1" tooltips="1" connect="1" arrows="1" fold="1" page="1" pageScale="1" pageWidth="827" pageHeight="1169" math="0" shadow="0">
      <root>
        <mxCell id="WIyWlLk6GJQsqaUBKTNV-0" />
        <mxCell id="WIyWlLk6GJQsqaUBKTNV-1" parent="WIyWlLk6GJQsqaUBKTNV-0" />
        <mxCell id="r8nyYq00vyaNpobLBSfx-3" style="edgeStyle=orthogonalEdgeStyle;rounded=0;orthogonalLoop=1;jettySize=auto;html=1;" edge="1" parent="WIyWlLk6GJQsqaUBKTNV-1" source="r8nyYq00vyaNpobLBSfx-1" target="r8nyYq00vyaNpobLBSfx-2">
          <mxGeometry relative="1" as="geometry" />
        </mxCell>
        <mxCell id="r8nyYq00vyaNpobLBSfx-1" value="start" style="ellipse;whiteSpace=wrap;html=1;" vertex="1" parent="WIyWlLk6GJQsqaUBKTNV-1">
          <mxGeometry x="340" y="50" width="120" height="80" as="geometry" />
        </mxCell>
        <mxCell id="r8nyYq00vyaNpobLBSfx-4" style="edgeStyle=orthogonalEdgeStyle;rounded=0;orthogonalLoop=1;jettySize=auto;html=1;" edge="1" parent="WIyWlLk6GJQsqaUBKTNV-1" source="r8nyYq00vyaNpobLBSfx-2">
          <mxGeometry relative="1" as="geometry">
            <mxPoint x="400" y="300" as="targetPoint" />
          </mxGeometry>
        </mxCell>
        <mxCell id="r8nyYq00vyaNpobLBSfx-2" value="podierz a i b" style="rounded=0;whiteSpace=wrap;html=1;" vertex="1" parent="WIyWlLk6GJQsqaUBKTNV-1">
          <mxGeometry x="340" y="190" width="120" height="60" as="geometry" />
        </mxCell>
        <mxCell id="r8nyYq00vyaNpobLBSfx-7" style="edgeStyle=orthogonalEdgeStyle;rounded=0;orthogonalLoop=1;jettySize=auto;html=1;" edge="1" parent="WIyWlLk6GJQsqaUBKTNV-1" source="r8nyYq00vyaNpobLBSfx-5">
          <mxGeometry relative="1" as="geometry">
            <mxPoint x="400" y="430" as="targetPoint" />
          </mxGeometry>
        </mxCell>
        <mxCell id="r8nyYq00vyaNpobLBSfx-10" style="edgeStyle=orthogonalEdgeStyle;rounded=0;orthogonalLoop=1;jettySize=auto;html=1;" edge="1" parent="WIyWlLk6GJQsqaUBKTNV-1" source="r8nyYq00vyaNpobLBSfx-5">
          <mxGeometry relative="1" as="geometry">
            <mxPoint x="490" y="340" as="targetPoint" />
          </mxGeometry>
        </mxCell>
        <mxCell id="r8nyYq00vyaNpobLBSfx-5" value="a&amp;gt;b" style="rhombus;whiteSpace=wrap;html=1;" vertex="1" parent="WIyWlLk6GJQsqaUBKTNV-1">
          <mxGeometry x="360" y="300" width="80" height="80" as="geometry" />
        </mxCell>
        <mxCell id="r8nyYq00vyaNpobLBSfx-8" value="tak" style="text;html=1;align=center;verticalAlign=middle;resizable=0;points=[];autosize=1;strokeColor=none;fillColor=none;" vertex="1" parent="WIyWlLk6GJQsqaUBKTNV-1">
          <mxGeometry x="390" y="385" width="40" height="30" as="geometry" />
        </mxCell>
        <mxCell id="r8nyYq00vyaNpobLBSfx-14" style="edgeStyle=orthogonalEdgeStyle;rounded=0;orthogonalLoop=1;jettySize=auto;html=1;entryX=0.5;entryY=0;entryDx=0;entryDy=0;" edge="1" parent="WIyWlLk6GJQsqaUBKTNV-1" source="r8nyYq00vyaNpobLBSfx-9" target="r8nyYq00vyaNpobLBSfx-15">
          <mxGeometry relative="1" as="geometry">
            <mxPoint x="400" y="530" as="targetPoint" />
          </mxGeometry>
        </mxCell>
        <mxCell id="r8nyYq00vyaNpobLBSfx-9" value="c=a md b " style="rounded=0;whiteSpace=wrap;html=1;" vertex="1" parent="WIyWlLk6GJQsqaUBKTNV-1">
          <mxGeometry x="340" y="430" width="120" height="60" as="geometry" />
        </mxCell>
        <mxCell id="r8nyYq00vyaNpobLBSfx-11" value="nie" style="text;html=1;align=center;verticalAlign=middle;resizable=0;points=[];autosize=1;strokeColor=none;fillColor=none;" vertex="1" parent="WIyWlLk6GJQsqaUBKTNV-1">
          <mxGeometry x="430" y="305" width="40" height="30" as="geometry" />
        </mxCell>
        <mxCell id="r8nyYq00vyaNpobLBSfx-13" style="edgeStyle=orthogonalEdgeStyle;rounded=0;orthogonalLoop=1;jettySize=auto;html=1;entryX=0.992;entryY=0.867;entryDx=0;entryDy=0;entryPerimeter=0;" edge="1" parent="WIyWlLk6GJQsqaUBKTNV-1" source="r8nyYq00vyaNpobLBSfx-12" target="r8nyYq00vyaNpobLBSfx-9">
          <mxGeometry relative="1" as="geometry">
            <mxPoint x="550" y="480" as="targetPoint" />
            <Array as="points">
              <mxPoint x="550" y="480" />
              <mxPoint x="459" y="480" />
            </Array>
          </mxGeometry>
        </mxCell>
        <mxCell id="r8nyYq00vyaNpobLBSfx-12" value="&lt;div&gt;d=b&lt;/div&gt;&lt;div&gt;b=a&lt;/div&gt;&lt;div&gt;a=d&lt;br&gt;&lt;/div&gt;" style="rounded=0;whiteSpace=wrap;html=1;" vertex="1" parent="WIyWlLk6GJQsqaUBKTNV-1">
          <mxGeometry x="490" y="310" width="120" height="60" as="geometry" />
        </mxCell>
        <mxCell id="r8nyYq00vyaNpobLBSfx-16" style="edgeStyle=orthogonalEdgeStyle;rounded=0;orthogonalLoop=1;jettySize=auto;html=1;" edge="1" parent="WIyWlLk6GJQsqaUBKTNV-1" source="r8nyYq00vyaNpobLBSfx-15">
          <mxGeometry relative="1" as="geometry">
            <mxPoint x="400" y="620" as="targetPoint" />
          </mxGeometry>
        </mxCell>
        <mxCell id="r8nyYq00vyaNpobLBSfx-15" value="d=a-(b-c)" style="rounded=0;whiteSpace=wrap;html=1;" vertex="1" parent="WIyWlLk6GJQsqaUBKTNV-1">
          <mxGeometry x="340" y="540" width="120" height="50" as="geometry" />
        </mxCell>
        <mxCell id="r8nyYq00vyaNpobLBSfx-19" style="edgeStyle=orthogonalEdgeStyle;rounded=0;orthogonalLoop=1;jettySize=auto;html=1;entryX=0;entryY=0.5;entryDx=0;entryDy=0;" edge="1" parent="WIyWlLk6GJQsqaUBKTNV-1" source="r8nyYq00vyaNpobLBSfx-17" target="r8nyYq00vyaNpobLBSfx-18">
          <mxGeometry relative="1" as="geometry" />
        </mxCell>
        <mxCell id="r8nyYq00vyaNpobLBSfx-22" style="edgeStyle=orthogonalEdgeStyle;rounded=0;orthogonalLoop=1;jettySize=auto;html=1;entryX=0.5;entryY=1;entryDx=0;entryDy=0;" edge="1" parent="WIyWlLk6GJQsqaUBKTNV-1" source="r8nyYq00vyaNpobLBSfx-17" target="r8nyYq00vyaNpobLBSfx-25">
          <mxGeometry relative="1" as="geometry">
            <mxPoint x="230" y="670" as="targetPoint" />
          </mxGeometry>
        </mxCell>
        <mxCell id="r8nyYq00vyaNpobLBSfx-17" value="d=-0" style="rhombus;whiteSpace=wrap;html=1;" vertex="1" parent="WIyWlLk6GJQsqaUBKTNV-1">
          <mxGeometry x="360" y="630" width="80" height="80" as="geometry" />
        </mxCell>
        <mxCell id="r8nyYq00vyaNpobLBSfx-21" style="edgeStyle=orthogonalEdgeStyle;rounded=0;orthogonalLoop=1;jettySize=auto;html=1;" edge="1" parent="WIyWlLk6GJQsqaUBKTNV-1" source="r8nyYq00vyaNpobLBSfx-18" target="r8nyYq00vyaNpobLBSfx-20">
          <mxGeometry relative="1" as="geometry" />
        </mxCell>
        <mxCell id="r8nyYq00vyaNpobLBSfx-18" value="wyÅ›wietl c" style="rounded=0;whiteSpace=wrap;html=1;" vertex="1" parent="WIyWlLk6GJQsqaUBKTNV-1">
          <mxGeometry x="500" y="640" width="120" height="60" as="geometry" />
        </mxCell>
        <mxCell id="r8nyYq00vyaNpobLBSfx-20" value="stop" style="ellipse;whiteSpace=wrap;html=1;" vertex="1" parent="WIyWlLk6GJQsqaUBKTNV-1">
          <mxGeometry x="670" y="630" width="120" height="80" as="geometry" />
        </mxCell>
        <mxCell id="r8nyYq00vyaNpobLBSfx-23" value="n" style="text;html=1;align=center;verticalAlign=middle;resizable=0;points=[];autosize=1;strokeColor=none;fillColor=none;" vertex="1" parent="WIyWlLk6GJQsqaUBKTNV-1">
          <mxGeometry x="305" y="635" width="30" height="30" as="geometry" />
        </mxCell>
        <mxCell id="r8nyYq00vyaNpobLBSfx-24" value="y" style="text;html=1;align=center;verticalAlign=middle;resizable=0;points=[];autosize=1;strokeColor=none;fillColor=none;" vertex="1" parent="WIyWlLk6GJQsqaUBKTNV-1">
          <mxGeometry x="445" y="625" width="30" height="30" as="geometry" />
        </mxCell>
        <mxCell id="r8nyYq00vyaNpobLBSfx-26" style="edgeStyle=orthogonalEdgeStyle;rounded=0;orthogonalLoop=1;jettySize=auto;html=1;entryX=-0.075;entryY=0.467;entryDx=0;entryDy=0;entryPerimeter=0;" edge="1" parent="WIyWlLk6GJQsqaUBKTNV-1" source="r8nyYq00vyaNpobLBSfx-25" target="r8nyYq00vyaNpobLBSfx-8">
          <mxGeometry relative="1" as="geometry">
            <mxPoint x="220" y="380" as="targetPoint" />
            <Array as="points">
              <mxPoint x="220" y="470" />
              <mxPoint x="240" y="470" />
              <mxPoint x="240" y="400" />
              <mxPoint x="220" y="400" />
              <mxPoint x="220" y="399" />
            </Array>
          </mxGeometry>
        </mxCell>
        <mxCell id="r8nyYq00vyaNpobLBSfx-25" value="&lt;div&gt;a-b&lt;/div&gt;&lt;div&gt;b=c&lt;br&gt;&lt;/div&gt;" style="rounded=0;whiteSpace=wrap;html=1;" vertex="1" parent="WIyWlLk6GJQsqaUBKTNV-1">
          <mxGeometry x="160" y="560" width="120" height="35" as="geometry" />
        </mxCell>
      </root>
    </mxGraphModel>
  </diagram>
</mxfile>
